<?xml version="1.0" encoding="UTF-8"?>
<svg version="1.1" xmlns="http://www.w3.org/2000/svg" width="400" height="400">
<path d="M0 0 C132 0 264 0 400 0 C400 132 400 264 400 400 C268 400 136 400 0 400 C0 268 0 136 0 0 Z " fill="#4F2A93" transform="translate(0,0)"/>
<path d="M0 0 C3.20579635 0.15920433 4.21641301 1.21011615 6.55078125 3.4765625 C7.47915686 4.5191457 8.39937179 5.56903698 9.3125 6.625 C10.29720456 7.728733 11.28287791 8.83160246 12.26953125 9.93359375 C12.74213379 10.46581543 13.21473633 10.99803711 13.70166016 11.54638672 C27.33710385 26.81254538 44.3240554 37.97179825 63 46 C80.39020935 53.49041769 92.51930324 60.6921711 104.3359375 75.8984375 C107.71752511 80.16908101 107.88174207 79.98029035 114 81 C114 73.41 114 65.82 114 58 C110.7825 56.7315625 110.7825 56.7315625 107.5 55.4375 C101.60324828 52.98228589 95.92790068 50.2409741 92 45 C91.30078125 42.28515625 91.30078125 42.28515625 91 40 C92.11375 39.9484375 93.2275 39.896875 94.375 39.84375 C105.5172638 39.09880165 113.6004436 36.3734804 123.28564453 30.94238281 C129.87979246 27.3175735 136.38796958 24.7263918 144 26 C144.65484375 26.33257812 145.3096875 26.66515625 145.984375 27.0078125 C150.37200465 29.16761469 155.60211383 28.44732357 160.125 27 C161.07375 26.67 162.0225 26.34 163 26 C168.03420782 25.55840282 170.98889225 25.85615879 175 29 C179.59621097 34.10690108 180.16265803 37.9469764 180.125 44.625 C180.12886719 45.31851563 180.13273438 46.01203125 180.13671875 46.7265625 C180.12666646 51.87333354 180.12666646 51.87333354 179 53 C177.27276658 53.13241142 175.54287222 53.23076852 173.8125 53.3125 C168.65696216 53.71527639 165.93468273 54.70337393 162 58 C161.9425271 60.81617199 161.98178302 62.42421348 163 65 C165.72486041 67.70701198 168.86231018 69.79767828 172 72 C182.20853821 79.75775196 187.34756518 89.48477594 190 102 C190.26760768 105.37099346 190.27378107 108.6309718 190 112 C187.69 112 185.38 112 183 112 C182.71732293 116.74190778 183.54357061 119.76378988 185.5 124.0625 C189.80157809 134.90247679 188.61372427 143.66293927 184.875 154.515625 C183.0609652 157.88670633 181.61250019 159.2752463 178.8515625 161.79296875 C172.74213674 168.4159445 174.06921731 176.6129303 174.375 185.0625 C174.39802603 186.6881053 174.41758354 188.31376359 174.43359375 189.93945312 C174.46044572 191.51307671 174.49029283 193.08665263 174.5234375 194.66015625 C174.53821136 195.37808853 174.55298523 196.09602081 174.56820679 196.83570862 C174.72383795 205.0074318 174.72383795 205.0074318 178 212 C179.68500881 212.10068594 181.37449206 212.12964376 183.0625 212.125 C184.05765625 212.12628906 185.0528125 212.12757813 186.078125 212.12890625 C188.63975179 212.0158933 190.82832958 211.63539977 193.3125 211.0625 C197 211 197 211 198.82421875 212.24609375 C203.16707766 216.79141694 203 218.03336699 203 225 C185.84 225 168.68 225 151 225 C151 217 151 217 152.5625 215.1875 C155.67150216 213.67285792 158.79228221 212.29542449 162 211 C162.79416516 202.92598752 160.81133631 197.53977856 156 191 C150.0004943 185.32268997 145.44746445 183.58347452 137.2421875 183.65234375 C129.11779481 184.52351357 121.62022348 189.54434033 116.52734375 195.8125 C113.11399529 200.68056243 112.28695799 204.0919376 113 210 C114.77163007 212.18665836 114.77163007 212.18665836 117.0234375 212.23046875 C117.79945313 212.21628906 118.57546875 212.20210937 119.375 212.1875 C120.53128906 212.17783203 120.53128906 212.17783203 121.7109375 212.16796875 C123.92968013 212.00515999 125.85159751 211.55292874 128 211 C132.74802252 210.40543546 135.93641922 210.29094615 140 213 C142.59840959 216.89761438 142.84486463 219.34593879 143 224 C140.92096932 226.07903068 136.40964757 225.16790313 133.54321289 225.17700195 C132.6551445 225.18357315 131.76707611 225.19014435 130.85209656 225.19691467 C127.8922823 225.21672896 124.9325194 225.2283388 121.97265625 225.23828125 C120.95897917 225.24235678 119.94530209 225.2464323 118.90090752 225.25063133 C113.51800615 225.27154354 108.13513054 225.28581322 102.75219727 225.29516602 C97.23287449 225.30613842 91.71396524 225.34041541 86.19478703 225.38033772 C81.92117153 225.40672659 77.64765026 225.41487824 73.37396049 225.41844749 C71.34294331 225.42326974 69.31192906 225.4347563 67.28099251 225.45348549 C50.44514553 225.59887662 31.63965094 225.44729645 18.3984375 213.5625 C13.81590109 208.63158362 11.88303429 202.72975346 11.5 196.125 C12.08902154 182.30403031 24.23109843 172.54167261 33.5625 163.625 C37.97882629 159.24539991 39.69288444 155.58854546 40.4375 149.3125 C39.9106016 145.3231264 39.1117854 144.450482 36 142 C33.30762013 141.3636349 33.30762013 141.3636349 30.359375 141.390625 C28.75449219 141.34228516 28.75449219 141.34228516 27.1171875 141.29296875 C26.00601563 141.27878906 24.89484375 141.26460937 23.75 141.25 C22.62335938 141.22035156 21.49671875 141.19070312 20.3359375 141.16015625 C17.55767662 141.0895225 14.7788338 141.04248981 12 141 C12 136.71 12 132.42 12 128 C7.71 128 3.42 128 -1 128 C-1 115.13 -1 102.26 -1 89 C3.29 89 7.58 89 12 89 C12 93.29 12 97.58 12 102 C16.29 102 20.58 102 25 102 C25 106.29 25 110.58 25 115 C28.96 115 32.92 115 37 115 C36.99097656 116.22976562 36.98195312 117.45953125 36.97265625 118.7265625 C36.71476755 127.41178768 36.71476755 127.41178768 39.51953125 135.3203125 C41.28728967 136.68241688 43.10066327 137.83283389 45 139 C48.75031084 144.20204406 48.99015073 149.81367365 48 156 C45.07376454 163.93911139 38.78433613 169.43429393 32.84765625 175.171875 C27.13260188 180.7469917 21.00194077 187.70730307 20.625 196 C20.75902297 199.88666627 22.06939296 202.62143768 24 206 C24 206.66 24 207.32 24 208 C24.680625 208.268125 25.36125 208.53625 26.0625 208.8125 C29 210 29 210 31.875 211.625 C40.26828762 215.2510475 51.48073092 213.51388268 60 211 C63.15519636 209.71809222 63.15519636 209.71809222 65 207 C65.05065217 204.15034619 65.04237644 201.32477625 64.9921875 198.4765625 C64.97464349 196.71484979 64.95773795 194.95313062 64.94140625 193.19140625 C64.91068944 190.42250495 64.87548984 187.65393122 64.82861328 184.88525391 C64.57918617 169.33389404 64.98170373 154.23595652 75.8515625 141.8984375 C82.62737386 135.55455037 89.71767341 132.68056562 98.93359375 132.17578125 C101.06218269 132.12298889 101.06218269 132.12298889 103 131 C103.65213292 128.97536745 103.65213292 128.97536745 104 127 C102.83726562 126.92523438 101.67453125 126.85046875 100.4765625 126.7734375 C83.17188828 125.44286954 68.22122845 121.21269522 54 111 C53.25492188 110.48050781 52.50984375 109.96101563 51.7421875 109.42578125 C44.39710733 103.70814041 37.82889892 93.84030913 35 85 C35.375 82.1875 35.375 82.1875 36 80 C37.26263672 80.24169922 37.26263672 80.24169922 38.55078125 80.48828125 C48.41690236 81.95199797 58.31878424 81.25425398 68 79 C67.67 78.34 67.34 77.68 67 77 C65.91203125 76.96261719 64.8240625 76.92523438 63.703125 76.88671875 C43.97430614 76.06684319 29.88821638 71.60726173 16.0625 56.9453125 C3.41156049 41.97879924 -2.4302779 20.29212048 -1 1 C-0.67 0.67 -0.34 0.34 0 0 Z " fill="#FDFDFE" transform="translate(98,79)"/>
<path d="M0 0 C4.29 0 8.58 0 13 0 C13 4.29 13 8.58 13 13 C8.71 13 4.42 13 0 13 C0 8.71 0 4.42 0 0 Z " fill="#F6F4F9" transform="translate(84,154)"/>
</svg>
